<svg width="2000" height="2000" viewBox="0 0 2000 2000" fill="none" xmlns="http://www.w3.org/2000/svg">
<path fill-rule="evenodd" clip-rule="evenodd" d="M1060 1009.6L1109.5 1059.1L1358.97 809.624C1373.45 828.495 1386.61 848.429 1398.31 869.287L1161 1106.6L1210.5 1156.1L1429.81 936.783C1439.17 961.516 1446.62 987.186 1451.99 1013.61L1262 1203.6L1311.5 1253.1L1461.88 1102.71C1461.96 1106.35 1462 1110 1462 1113.66L1462 1113.88L1462 1114.1C1462 1233.2 1420.36 1342.57 1350.85 1428.45L647.409 725.012C659.388 715.304 671.825 706.138 684.682 697.552C754.677 744.743 852.964 774.101 961.804 774.101C1070.75 774.101 1169.11 744.689 1239.12 697.42C1265.45 714.986 1290.02 734.983 1312.51 757.091L1060 1009.6ZM596.197 772.795C580.526 789.605 566 807.497 552.743 826.346L1249.57 1523.18C1268.41 1509.91 1286.29 1495.37 1303.09 1479.69L596.197 772.795ZM485.29 962.396C493.435 936.702 503.601 911.907 515.599 888.198L1187.76 1560.35C1164.06 1572.36 1139.28 1582.54 1113.6 1590.71L485.29 962.396ZM962 1614.1C986.102 1614.1 1009.81 1612.4 1033 1609.1L466.948 1043.05C463.687 1066.12 462 1089.69 462 1113.66L462 1113.88L462 1114.1C462 1188.41 478.209 1258.93 507.283 1322.32L563.5 1266.1L612.997 1315.6L542.43 1386.17C555.306 1405.98 569.549 1424.83 585.024 1442.58L664.5 1363.1L713.997 1412.6L634.591 1492C652.386 1507.44 671.282 1521.63 691.145 1534.46L765.5 1460.1L814.997 1509.6L755.153 1569.44C818.189 1598.12 888.229 1614.1 962 1614.1Z" fill="#FF5959"/>
<path d="M703.312 762.732C703.312 762.732 648.274 722.357 681.5 699.5C714.726 676.643 734.408 641.664 871.673 614.104C1008.94 586.544 1090.24 650.658 1263.3 591.289C1436.37 531.92 1494.8 427.019 1494.8 427.019L1516.88 493.833C1516.88 493.833 1426.78 605.79 1265.07 656.803C1103.36 707.815 1030.98 643.733 883.658 668.514C736.34 693.294 703.312 762.732 703.312 762.732Z" fill="#FF5959"/>
</svg>
