<svg width="5000" height="2000" viewBox="0 0 5000 2000" fill="none" xmlns="http://www.w3.org/2000/svg">
<path fill-rule="evenodd" clip-rule="evenodd" d="M1064.07 989.626L1112.25 1037.8L1355.07 794.978C1369.16 813.346 1381.97 832.748 1393.37 853.051L1162.38 1084.04L1210.55 1132.22L1424.03 918.748C1433.13 942.823 1440.39 967.809 1445.61 993.531L1260.69 1178.46L1308.86 1226.64L1455.24 1080.26C1455.32 1083.8 1455.36 1087.35 1455.36 1090.92L1455.36 1091.13L1455.36 1091.34C1455.36 1207.27 1414.83 1313.72 1347.16 1397.32L662.469 712.62C674.129 703.17 686.234 694.249 698.749 685.892C766.879 731.826 862.547 760.401 968.487 760.401C1074.53 760.401 1170.27 731.773 1238.42 685.764C1264.04 702.861 1287.96 722.325 1309.85 743.844L1064.07 989.626ZM612.622 759.13C597.368 775.493 583.229 792.908 570.325 811.254L1248.59 1489.52C1266.93 1476.6 1284.33 1462.46 1300.68 1447.19L612.622 759.13ZM504.669 943.679C512.598 918.67 522.492 894.536 534.171 871.458L1188.42 1525.71C1165.36 1537.4 1141.23 1547.3 1116.24 1555.25L504.669 943.679ZM968.678 1578.02C992.138 1578.02 1015.21 1576.36 1037.78 1573.15L486.816 1022.18C483.642 1044.64 482 1067.58 482 1090.92L482 1091.13L482 1091.34C482 1163.67 497.777 1232.31 526.077 1294.01L580.796 1239.29L628.974 1287.47L560.287 1356.16C572.82 1375.45 586.683 1393.79 601.746 1411.07L679.105 1333.71L727.283 1381.89L649.993 1459.18C667.314 1474.2 685.706 1488.01 705.04 1500.5L777.414 1428.12L825.592 1476.3L767.342 1534.55C828.699 1562.47 896.873 1578.02 968.678 1578.02Z" fill="#FF5959"/>
<path d="M716.883 749.335C716.883 749.335 663.311 710.036 695.652 687.788C727.992 665.54 747.15 631.493 880.758 604.667C1014.36 577.841 1093.5 640.248 1261.95 582.46C1430.41 524.672 1487.28 422.567 1487.28 422.567L1508.77 487.6C1508.77 487.6 1421.08 596.574 1263.67 646.228C1106.27 695.882 1035.82 633.507 892.423 657.627C749.031 681.747 716.883 749.335 716.883 749.335Z" fill="#FF5959"/>
<path d="M1879.18 1192.5C1861.52 1192.5 1845.85 1189.33 1832.18 1183C1818.52 1176.33 1807.85 1167.33 1800.18 1156C1792.85 1144.67 1789.18 1131.5 1789.18 1116.5C1789.18 1101.17 1793.02 1088 1800.68 1077C1808.68 1066 1819.85 1057.5 1834.18 1051.5C1848.85 1045.5 1866.18 1042.5 1886.18 1042.5C1898.18 1042.5 1909.85 1043.83 1921.18 1046.5C1932.52 1048.83 1943.85 1052.83 1955.18 1058.5V1033.5C1955.18 1015.83 1950.35 1002.67 1940.68 994C1931.02 985 1916.18 980.5 1896.18 980.5C1885.18 980.5 1873.52 982.167 1861.18 985.5C1849.18 988.833 1835.68 994.333 1820.68 1002L1799.18 961C1818.85 951.333 1837.35 944.333 1854.68 940C1872.35 935.667 1889.85 933.5 1907.18 933.5C1940.18 933.5 1965.68 941.667 1983.68 958C2002.02 974.333 2011.18 997.5 2011.18 1027.5V1188H1955.18V1161.5C1943.85 1172.17 1932.02 1180 1919.68 1185C1907.35 1190 1893.85 1192.5 1879.18 1192.5ZM1842.18 1115C1842.18 1126.67 1846.85 1136 1856.18 1143C1865.85 1149.67 1878.68 1153 1894.68 1153C1906.35 1153 1917.18 1151.17 1927.18 1147.5C1937.18 1143.83 1946.52 1138.33 1955.18 1131V1091.5C1946.18 1087.17 1936.85 1084 1927.18 1082C1917.52 1080 1907.18 1079 1896.18 1079C1879.52 1079 1866.35 1082.33 1856.68 1089C1847.02 1095.33 1842.18 1104 1842.18 1115ZM2196.49 1188V1143.5H2258.49V982.5H2196.49V937.5H2314.99V997C2323.32 976 2334.65 960.167 2348.99 949.5C2363.65 938.833 2380.32 933.5 2398.99 933.5C2406.65 933.5 2413.15 934.167 2418.49 935.5C2423.82 936.5 2430.15 938.333 2437.49 941V992.5C2430.15 989.5 2422.32 987.333 2413.99 986C2405.99 984.333 2398.15 983.5 2390.49 983.5C2374.15 983.5 2359.32 987.5 2345.99 995.5C2332.65 1003.17 2322.32 1014.17 2314.99 1028.5V1143.5H2380.99V1188H2196.49ZM2706.29 888.5C2694.96 888.5 2685.29 884.5 2677.29 876.5C2669.63 868.5 2665.79 859 2665.79 848C2665.79 837 2669.63 827.667 2677.29 820C2685.29 812 2694.96 808 2706.29 808C2717.29 808 2726.63 812 2734.29 820C2742.29 827.667 2746.29 837 2746.29 848C2746.29 859 2742.29 868.5 2734.29 876.5C2726.63 884.5 2717.29 888.5 2706.29 888.5ZM2770.29 1193C2739.96 1193 2716.96 1185.83 2701.29 1171.5C2685.63 1157.17 2677.79 1136 2677.79 1108V982.5H2587.79V937.5H2734.29V1102C2734.29 1117 2737.79 1127.83 2744.79 1134.5C2752.13 1141.17 2763.13 1144.5 2777.79 1144.5C2786.13 1144.5 2794.29 1143.67 2802.29 1142C2810.29 1140.33 2819.13 1137.67 2828.79 1134V1181.5C2821.13 1184.5 2811.96 1187.17 2801.29 1189.5C2790.63 1191.83 2780.29 1193 2770.29 1193ZM3078.6 1192.5C3060.93 1192.5 3045.26 1189.33 3031.6 1183C3017.93 1176.33 3007.26 1167.33 2999.6 1156C2992.26 1144.67 2988.6 1131.5 2988.6 1116.5C2988.6 1101.17 2992.43 1088 3000.1 1077C3008.1 1066 3019.26 1057.5 3033.6 1051.5C3048.26 1045.5 3065.6 1042.5 3085.6 1042.5C3097.6 1042.5 3109.26 1043.83 3120.6 1046.5C3131.93 1048.83 3143.26 1052.83 3154.6 1058.5V1033.5C3154.6 1015.83 3149.76 1002.67 3140.1 994C3130.43 985 3115.6 980.5 3095.6 980.5C3084.6 980.5 3072.93 982.167 3060.6 985.5C3048.6 988.833 3035.1 994.333 3020.1 1002L2998.6 961C3018.26 951.333 3036.76 944.333 3054.1 940C3071.76 935.667 3089.26 933.5 3106.6 933.5C3139.6 933.5 3165.1 941.667 3183.1 958C3201.43 974.333 3210.6 997.5 3210.6 1027.5V1188H3154.6V1161.5C3143.26 1172.17 3131.43 1180 3119.1 1185C3106.76 1190 3093.26 1192.5 3078.6 1192.5ZM3041.6 1115C3041.6 1126.67 3046.26 1136 3055.6 1143C3065.26 1149.67 3078.1 1153 3094.1 1153C3105.76 1153 3116.6 1151.17 3126.6 1147.5C3136.6 1143.83 3145.93 1138.33 3154.6 1131V1091.5C3145.6 1087.17 3136.26 1084 3126.6 1082C3116.93 1080 3106.6 1079 3095.6 1079C3078.93 1079 3065.76 1082.33 3056.1 1089C3046.43 1095.33 3041.6 1104 3041.6 1115ZM3492.9 1191.5C3471.9 1191.5 3452.74 1185.83 3435.4 1174.5C3418.4 1163.17 3404.74 1147.83 3394.4 1128.5C3384.4 1108.83 3379.4 1087 3379.4 1063C3379.4 1038.67 3384.57 1016.83 3394.9 997.5C3405.24 978.167 3419.07 962.833 3436.4 951.5C3453.74 939.833 3472.9 934 3493.9 934C3507.57 934 3520.07 936.667 3531.4 942C3543.07 947.333 3553.4 954.833 3562.4 964.5V829L3618.9 819.5V1188H3563.9V1159C3554.9 1169.67 3544.4 1177.83 3532.4 1183.5C3520.4 1188.83 3507.24 1191.5 3492.9 1191.5ZM3506.4 1145C3517.74 1145 3528.24 1142.83 3537.9 1138.5C3547.57 1134.17 3555.74 1128 3562.4 1120V1006C3555.74 998 3547.4 991.833 3537.4 987.5C3527.74 982.833 3517.4 980.5 3506.4 980.5C3492.4 980.5 3480.07 984 3469.4 991C3458.74 998 3450.4 1007.67 3444.4 1020C3438.4 1032.33 3435.4 1046.67 3435.4 1063C3435.4 1078.67 3438.4 1092.83 3444.4 1105.5C3450.4 1117.83 3458.74 1127.5 3469.4 1134.5C3480.07 1141.5 3492.4 1145 3506.4 1145ZM3797.71 1188V937.5H3854.21V975C3873.54 947.333 3899.21 933.5 3931.21 933.5C3948.54 933.5 3963.71 937.333 3976.71 945C3989.71 952.333 3999.87 962.833 4007.21 976.5C4014.87 989.833 4018.71 1005.33 4018.71 1023V1188H3961.71V1039C3961.71 1020.67 3956.71 1006.17 3946.71 995.5C3936.71 984.5 3923.37 979 3906.71 979C3896.04 979 3886.21 981.333 3877.21 986C3868.21 990.667 3860.54 997.5 3854.21 1006.5V1188H3797.71ZM4313.51 1193C4289.18 1193 4267.18 1187.33 4247.51 1176C4227.85 1164.33 4212.18 1148.67 4200.51 1129C4189.18 1109.33 4183.51 1087.33 4183.51 1063C4183.51 1038.33 4188.85 1016.33 4199.51 997C4210.51 977.667 4225.35 962.333 4244.01 951C4263.01 939.333 4284.18 933.5 4307.51 933.5C4331.85 933.5 4353.35 939.167 4372.01 950.5C4391.01 961.833 4405.85 977.167 4416.51 996.5C4427.51 1015.83 4433.01 1038 4433.01 1063V1076.5H4239.01C4240.68 1090.17 4245.01 1102.33 4252.01 1113C4259.35 1123.33 4268.51 1131.5 4279.51 1137.5C4290.85 1143.5 4303.18 1146.5 4316.51 1146.5C4329.51 1146.5 4341.51 1144 4352.51 1139C4363.85 1134 4373.18 1127 4380.51 1118L4418.01 1151.5C4403.68 1165.83 4387.85 1176.33 4370.51 1183C4353.18 1189.67 4334.18 1193 4313.51 1193ZM4239.51 1041H4379.01C4377.01 1028.67 4372.68 1018 4366.01 1009C4359.68 999.667 4351.51 992.5 4341.51 987.5C4331.85 982.167 4320.85 979.5 4308.51 979.5C4296.85 979.5 4286.18 982 4276.51 987C4267.18 992 4259.35 999.167 4253.01 1008.5C4246.68 1017.5 4242.18 1028.33 4239.51 1041Z" fill="black"/>
</svg>
